<svg version="1.2" overflow="visible" preserveAspectRatio="none" viewBox="0 0 21.229999542236328 22.8799991607666" xmlns="http://www.w3.org/2000/svg" width="62.959999999998" height="68.43478260869"><g transform="translate(1, 1)"><defs><style>.cls-1_1531872049020{fill:#4d3733;}.cls-2_1531872049020{fill:#de3518;}</style></defs><title>Asset 15</title><g id="Layer_2_1531872049020" data-name="Layer 2"><g id="ICONS_1531872049020"><path class="cls-1_1531872049020" d="M9.85,20.88a9,9,0,1,1,9-9A9,9,0,0,1,9.85,20.88Zm0-17a8,8,0,1,0,8,8A8,8,0,0,0,9.85,3.83Z" vector-effect="non-scaling-stroke"/><path class="cls-2_1531872049020" d="M4.06,2.65.7,6A2.38,2.38,0,0,1,4.06,2.65Z" vector-effect="non-scaling-stroke"/><path class="cls-2_1531872049020" d="M18.53,6,15.17,2.65A2.38,2.38,0,1,1,18.53,6Z" vector-effect="non-scaling-stroke"/><path class="cls-1_1531872049020" d="M9.85,12.36a.51.51,0,0,1-.5-.5V5.77a.51.51,0,0,1,.5-.5.5.5,0,0,1,.5.5v6.09A.5.5,0,0,1,9.85,12.36Z" vector-effect="non-scaling-stroke"/><rect class="cls-1_1531872049020" x="9.35" y="0.75" width="1" height="2.58" vector-effect="non-scaling-stroke"/><path class="cls-1_1531872049020" d="M9.85,12.36H5.44a.5.5,0,0,1-.5-.5.5.5,0,0,1,.5-.5H9.85a.5.5,0,0,1,.5.5A.5.5,0,0,1,9.85,12.36Z" vector-effect="non-scaling-stroke"/><rect class="cls-1_1531872049020" x="7.65" width="4.42" height="1.5" vector-effect="non-scaling-stroke"/><circle class="cls-1_1531872049020" cx="9.85" cy="11.86" r="1.32" vector-effect="non-scaling-stroke"/></g></g></g></svg>