<svg version="1.2" overflow="visible" preserveAspectRatio="none" viewBox="0 0 28.59000015258789 28.59000015258789" xmlns="http://www.w3.org/2000/svg" width="71" height="71"><g transform="translate(1, 1)"><defs><style>.cls-1_1531872049018{fill:#4d3733;}.cls-2_1531872049018{fill:#dd3826;}</style></defs><title>TG-Seal-v2</title><g id="Layer_2_1531872049018" data-name="Layer 2"><g id="Text_1531872049018"><path class="cls-1_1531872049018" d="M6,6.86l-.47.65L7.33,8.79l-.25.36L5.29,7.87l-.46.64-.3-.21L5.72,6.65Z" vector-effect="non-scaling-stroke"/><path class="cls-1_1531872049018" d="M8.38,4.5l1,1.4a.83.83,0,0,1,.16.68,1,1,0,0,1-.43.6,1.05,1.05,0,0,1-.71.2A.87.87,0,0,1,7.78,7l-1-1.41.36-.25,1,1.41A.53.53,0,0,0,8.48,7a.48.48,0,0,0,.39-.11A.46.46,0,0,0,9,6.15L8,4.75Z" vector-effect="non-scaling-stroke"/><path class="cls-1_1531872049018" d="M11.09,6.15l-.42.14L9.84,3.87l.42-.14Z" vector-effect="non-scaling-stroke"/><path class="cls-1_1531872049018" d="M13.62,3.56l-.79.06L13,5.81l-.44,0-.16-2.2-.79.06,0-.35,2-.16Z" vector-effect="non-scaling-stroke"/><path class="cls-1_1531872049018" d="M15,6l-.44-.08L15,3.38l.43.08Z" vector-effect="non-scaling-stroke"/><path class="cls-1_1531872049018" d="M18.24,6a1.76,1.76,0,0,1-.42.53,1,1,0,0,1-.53.22,1,1,0,0,1-.56-.12,1,1,0,0,1-.43-.39,1,1,0,0,1-.14-.55,1.57,1.57,0,0,1,.17-.64l.07-.13a1.5,1.5,0,0,1,.42-.53,1,1,0,0,1,.53-.22,1,1,0,0,1,.56.11,1.09,1.09,0,0,1,.43.39,1,1,0,0,1,.14.55,1.63,1.63,0,0,1-.18.65ZM17.9,5.7A1.11,1.11,0,0,0,18.05,5a.55.55,0,0,0-.3-.41.54.54,0,0,0-.51,0,1.16,1.16,0,0,0-.44.5l-.06.13a1.07,1.07,0,0,0-.15.65.57.57,0,0,0,.81.42,1.17,1.17,0,0,0,.44-.52Z" vector-effect="non-scaling-stroke"/><path class="cls-1_1531872049018" d="M19.65,9.09l-.3-.34.6-2L18.59,7.9l-.29-.33,1.91-1.7.29.33-.6,2.07,1.36-1.21.3.32Z" vector-effect="non-scaling-stroke"/><path class="cls-1_1531872049018" d="M4.13,16.43a.88.88,0,0,1-.36-.31,1.62,1.62,0,0,1-.21-.52,1.07,1.07,0,0,1,0-.59.89.89,0,0,1,.32-.47,1.43,1.43,0,0,1,.58-.28l.2,0a1.39,1.39,0,0,1,.94.07,1,1,0,0,1,.5.68,1.11,1.11,0,0,1-.05.71.93.93,0,0,1-.53.43l-.1-.42a.49.49,0,0,0,.33-.63.54.54,0,0,0-.31-.4,1.2,1.2,0,0,0-.66,0l-.19,0A1,1,0,0,0,4,15a.56.56,0,0,0-.11.53.62.62,0,0,0,.26.44l.48-.12-.12-.51.33-.08.22,1Z" vector-effect="non-scaling-stroke"/><path class="cls-1_1531872049018" d="M7.62,18.13l-1.43.94a.84.84,0,0,1-.69.14A1.13,1.13,0,0,1,4.74,18a.81.81,0,0,1,.4-.57l1.43-.94.24.37-1.43.94a.58.58,0,0,0-.26.33.5.5,0,0,0,.1.39.46.46,0,0,0,.73.13l1.42-.93Z" vector-effect="non-scaling-stroke"/><path class="cls-1_1531872049018" d="M8,21.06l-.78-.61-.53.35-.37-.28,2.33-1.44.31.24L8.2,21.94l-.37-.28Zm-.47-.81.59.45.35-1.07Z" vector-effect="non-scaling-stroke"/><path class="cls-1_1531872049018" d="M10.65,21.89l-.47-.15-.3.94-.42-.14.78-2.44.86.28a1,1,0,0,1,.59.4.7.7,0,0,1,.05.62.72.72,0,0,1-.25.37.78.78,0,0,1-.41.15l.22,1.19v0L10.84,23Zm-.36-.49.44.14a.58.58,0,0,0,.37,0,.4.4,0,0,0,.21-.26.44.44,0,0,0,0-.34.52.52,0,0,0-.3-.22l-.45-.14Z" vector-effect="non-scaling-stroke"/><path class="cls-1_1531872049018" d="M14.09,22.68l-1,0-.19.6h-.47l.91-2.58h.4l1,2.54h-.47Zm-.87-.34.74,0-.4-1.05Z" vector-effect="non-scaling-stroke"/><path class="cls-1_1531872049018" d="M18.05,22.2l-.41.16L15.9,21.1l.68,1.68-.42.17-.95-2.38.42-.16,1.74,1.27L16.69,20l.41-.16Z" vector-effect="non-scaling-stroke"/><path class="cls-1_1531872049018" d="M19.3,18.47l-.59.53,1.46,1.65-.33.29L18.38,19.3l-.6.52-.23-.27,1.51-1.35Z" vector-effect="non-scaling-stroke"/><path class="cls-1_1531872049018" d="M21.41,17.16l-.54.9.68.41.63-1.06.31.18L21.63,19l-2.2-1.31.85-1.43.31.19-.62,1,.6.36.54-.9Z" vector-effect="non-scaling-stroke"/><path class="cls-1_1531872049018" d="M22.22,14.56l-.24,1,.77.18.28-1.2.34.08L23,16.27l-2.49-.58.38-1.62.35.08L21,15.34l.69.16.24-1Z" vector-effect="non-scaling-stroke"/><circle class="cls-1_1531872049018" cx="4.83" cy="11.48" r="0.37" vector-effect="non-scaling-stroke"/><circle class="cls-1_1531872049018" cx="21.99" cy="11.48" r="0.37" vector-effect="non-scaling-stroke"/><path class="cls-1_1531872049018" d="M13.3,1A12.3,12.3,0,1,1,1,13.3,12.3,12.3,0,0,1,13.3,1m0-1A13.3,13.3,0,1,0,26.59,13.3,13.31,13.31,0,0,0,13.3,0Z" vector-effect="non-scaling-stroke"/><path class="cls-2_1531872049018" d="M16.61,14a1,1,0,0,0,1-.81v-.05s0,0,0,0h-.05a2.08,2.08,0,0,1-.71.13H14.34a.34.34,0,0,1-.21-.05s0,0,0,0l.22.65a.23.23,0,0,0,.25.13Z" vector-effect="non-scaling-stroke"/><path class="cls-2_1531872049018" d="M14.46,14.16l.12.33a.65.65,0,0,0,.62.45h1.08a1,1,0,0,0,1-.87s0,0,0,0a2.12,2.12,0,0,1-.75.14H14.68a.59.59,0,0,1-.2,0s0,0,0,0" vector-effect="non-scaling-stroke"/><path class="cls-2_1531872049018" d="M9.66,13.57a.81.81,0,0,1-.3-.66.83.83,0,0,1,.12-.42l2,1.55a.7.7,0,0,0,.93,0s0,0,0,0-.06.3-.09.44a.7.7,0,0,1-1.07.37Z" vector-effect="non-scaling-stroke"/><path class="cls-2_1531872049018" d="M12.89,11.24a2.08,2.08,0,0,0-.32.61c-.06.14-.13.2-.23.21A.37.37,0,0,1,12,12L11,11.12l-.57.51,1.47,1.16a.5.5,0,0,0,.4.15c.37,0,.42-.38.48-.65a1.6,1.6,0,0,0,0-.21,2,2,0,0,1,1.13-1.37s0,0,0,0a1.17,1.17,0,0,0-.24.91A6,6,0,0,0,14,12.78a.25.25,0,0,0,.25.18h2.53a1,1,0,0,0,1-.85s0,0,0,0a2.13,2.13,0,0,1-.76.12H14.4c-.36,0-.43-.47-.43-.58a1.19,1.19,0,0,1,.28-1,.44.44,0,0,1,.4-.17s0,0,0,0l-.3-.22a.25.25,0,0,0-.26,0l-.49.21s-.09,0-.13,0a.11.11,0,0,0-.11,0s-.51.27-.69.34a.31.31,0,0,1-.39-.1s0,0,0,0a.47.47,0,0,0,0,.17.46.46,0,0,0,.18.39.55.55,0,0,0,.49,0s0,0,0,0" vector-effect="non-scaling-stroke"/><path class="cls-2_1531872049018" d="M11.43,9.31a1,1,0,0,0,.27-1.06s0,0,0,0a2.91,2.91,0,0,1-.44.49L9.33,10.44a.67.67,0,0,0-.21.55v.5s0,0,0,0a1,1,0,0,1,.31-.41l2-1.76" vector-effect="non-scaling-stroke"/><path class="cls-2_1531872049018" d="M14.81,16.24a1.91,1.91,0,0,0-.85-.93,2.77,2.77,0,0,1-.69-.62,1,1,0,0,1,0-1.2c0-.07,0-.05,0,0a1.09,1.09,0,0,0,.61.88,1.83,1.83,0,0,1,.95,1.94C14.84,16.38,14.82,16.27,14.81,16.24Z" vector-effect="non-scaling-stroke"/><path class="cls-2_1531872049018" d="M12.53,16.41a1,1,0,0,0-.19.61,1.17,1.17,0,0,0,.16.49s0,0,0,0A1.64,1.64,0,0,1,12.36,15s0,0,0,0c-.06.46.37.86.6,1.05a7.71,7.71,0,0,0,.73.55,1.18,1.18,0,0,1,.49.79.49.49,0,0,0,.05-.41c-.11-.4-.63-.69-.77-.81a2.9,2.9,0,0,1-.7-.73,1.09,1.09,0,0,1,0-1.16s0,0,0,0a1,1,0,0,0,.37.69c.2.22.89.69,1.07.85a1.46,1.46,0,0,1,.28,1.75,1.38,1.38,0,0,1-1.2.8s0,0,0,0a.54.54,0,0,0,.33-.56c0-.3-.2-.48-.49-.69a1.47,1.47,0,0,1-.62-.66" vector-effect="non-scaling-stroke"/><path class="cls-2_1531872049018" d="M11.59,13.84a.61.61,0,0,0,.93-.47l.06-.32s0,0,0,0a.6.6,0,0,1-.81,0L10.2,11.79l-.56.5Z" vector-effect="non-scaling-stroke"/><path class="cls-2_1531872049018" d="M9.12,12.6s0,0,0,0a1.31,1.31,0,0,1,.38-.53l.25-.23,1.42-1.23a1.2,1.2,0,0,0,.4-1.12s0,0,0,0a2.93,2.93,0,0,1-.44.43c-.46.4-1.2,1-1.6,1.41a2.07,2.07,0,0,0-.3.29.76.76,0,0,0-.11.44Z" vector-effect="non-scaling-stroke"/></g></g></g></svg>