<svg version="1.2" overflow="visible" preserveAspectRatio="none" viewBox="0 0 22.06999969482422 24.1200008392334" xmlns="http://www.w3.org/2000/svg" width="56.826666666667" height="62.676470588235"><g transform="translate(1, 1)"><defs><style>.cls-1_1531872049020{fill:#4d3733;}.cls-2_1531872049020{fill:#de3518;}</style></defs><title>Transfer Credits</title><g id="Layer_2_1531872049020" data-name="Layer 2"><g id="ICONS_1531872049020"><g id="Transfer_Credits_1531872049020" data-name="Transfer Credits"><path class="cls-1_1531872049020" d="M4.8,21H1.63A1.63,1.63,0,0,1,0,19.32V2.79A1.63,1.63,0,0,1,1.63,1.16h9.64a.5.5,0,0,1,.5.5.5.5,0,0,1-.5.5H1.63A.63.63,0,0,0,1,2.79V19.32a.63.63,0,0,0,.63.63H4.8a.51.51,0,0,1,.5.5A.5.5,0,0,1,4.8,21Z" vector-effect="non-scaling-stroke"/><path class="cls-1_1531872049020" d="M18.44,21H9.65a.5.5,0,0,1-.5-.5.5.5,0,0,1,.5-.5h8.79a.63.63,0,0,0,.63-.63V2.79a.63.63,0,0,0-.63-.63H15.56a.5.5,0,0,1-.5-.5.5.5,0,0,1,.5-.5h2.88a1.63,1.63,0,0,1,1.63,1.63V19.32A1.63,1.63,0,0,1,18.44,21Z" vector-effect="non-scaling-stroke"/><polygon class="cls-2_1531872049020" points="6.07 10.52 4.71 12.07 8.31 15.21 8.79 15.65 15.71 7.9 14.16 6.52 8.62 12.74 6.07 10.52" vector-effect="non-scaling-stroke"/><polygon class="cls-1_1531872049020" points="13.04 1.66 8.99 0 8.99 3.33 13.04 1.66" vector-effect="non-scaling-stroke"/><polygon class="cls-1_1531872049020" points="7.3 20.45 11.35 22.12 11.35 18.79 7.3 20.45" vector-effect="non-scaling-stroke"/></g></g></g></g></svg>